<?xml version="1.0" encoding="iso-8859-1"?>
<!-- Uploaded to: SVG Repo, www.svgrepo.com, Generator: SVG Repo Mixer Tools -->
<!DOCTYPE svg PUBLIC "-//W3C//DTD SVG 1.1//EN" "http://www.w3.org/Graphics/SVG/1.1/DTD/svg11.dtd">
<svg fill="#000000" height="800px" width="800px" version="1.1" id="Capa_1" xmlns="http://www.w3.org/2000/svg" xmlns:xlink="http://www.w3.org/1999/xlink" 
	 viewBox="0 0 252.811 252.811" xml:space="preserve">
<path d="M246.824,108.485l-3.162-4.442c-3.033-4.262-7.347-11.565-9.615-16.279L218.451,55.35
	c-2.665-5.541-9.569-9.881-15.719-9.881H94.896c-6.051,0-13.361,3.983-16.644,9.068l-28.7,44.476
	c-2.594,4.02-8.722,8.328-13.383,9.408l-25.153,5.829C4.942,115.657,0,121.876,0,128.112v43.845c0,6.47,5.264,11.734,11.734,11.734
	h18.743c3.976,13.648,16.589,23.652,31.502,23.652c14.914,0,27.527-10.004,31.503-23.652h60.848
	c3.976,13.648,16.589,23.652,31.503,23.652c14.913,0,27.526-10.004,31.502-23.652h23.742c6.471,0,11.734-5.264,11.734-11.734
	v-44.734C252.811,121.433,250.182,113.202,246.824,108.485z M61.979,190.828c-9.001,0-16.299-7.299-16.299-16.3
	c0-9.002,7.298-16.299,16.299-16.299c9.002,0,16.3,7.297,16.3,16.299C78.279,183.529,70.981,190.828,61.979,190.828z
	 M154.981,108.434H72.756c-4.287,0-5.967-2.994-3.732-6.653l20.794-34.059c2.234-3.659,7.57-6.653,11.857-6.653h53.307V108.434z
	 M185.833,190.828c-9.002,0-16.3-7.299-16.3-16.3c0-9.002,7.298-16.299,16.3-16.299c9.001,0,16.299,7.297,16.299,16.299
	C202.132,183.529,194.834,190.828,185.833,190.828z M209.602,108.434h-35.863V61.068h20.346c4.287,0,8.887,3.333,10.222,7.408
	l10.664,32.55C216.306,105.1,213.89,108.434,209.602,108.434z"/>
</svg>