<?xml version="1.0" encoding="utf-8"?><!-- Uploaded to: SVG Repo, www.svgrepo.com, Generator: SVG Repo Mixer Tools -->
<svg width="800px" height="800px" viewBox="0 0 960 960" fill="none" xmlns="http://www.w3.org/2000/svg">
<path d="M592.448 676.492C634.941 548.274 689.177 423.607 727.239 294.235C728.897 287.334 727.228 283.457 719.294 281.709C622.855 263.12 528.089 232.324 430.221 223.091C412.095 330.54 388.216 436.331 364.157 542.468C342.362 615.971 322.161 723.719 232.862 739.576C190.558 745.804 155.44 716.767 152.031 674.155C152.533 607.712 208.223 541.795 268.736 557.322C280.026 560.837 290.903 565.663 303.375 570.441C336.499 451.986 358.667 329.019 380.87 207.933C389.514 157.034 449.275 172.417 485.656 177.892C570.069 196.051 654.789 213.267 738.464 234.573C793.265 244.735 779.161 306.258 766.581 344.77C746.661 402.504 724.432 459.439 703.634 516.878C673.232 600.523 646.883 685.763 608.832 766.403C604.543 775.907 597.859 784.555 591.205 792.726C542.974 856.995 435.247 818.887 436.935 738.333C437.239 664.774 537.81 635.657 592.448 676.492Z" fill="#000000"/>
<path d="M244.133 336.717C183.459 315.681 130.397 277.565 73.4054 248.431C55.0164 240.143 32.9644 221.844 45.3274 201.97C66.4504 167.334 119.569 221.201 145.805 231.568C179.352 250.51 213.21 268.898 246.923 287.545C275.45 298.178 278.166 331.889 244.133 336.717Z" fill="#000000"/>
<path d="M893.98 789.714C884.23 790.14 876.882 784.225 869.75 777.696C835.749 747.334 803.345 715.063 767.845 686.469C742.571 667.029 768.21 630.183 794.86 647.096C806.708 654.656 817.962 663.347 828.625 672.53C854.747 695.027 880.397 718.071 906.192 740.946C913.271 747.224 918.797 754.394 919.122 764.482C919.605 779.528 909.744 789.783 893.98 789.714Z" fill="#000000"/>
<path d="M156.159 437.789C166.397 438.604 173.732 443.039 177.686 452.15C195.01 489.63 100.57 506.205 76.3195 518.167C39.9925 530.781 25.4185 480.842 59.1055 469.926C91.4955 459.405 123.357 446.976 156.159 437.789Z" fill="#000000"/>
<path d="M663.886 862.332C661.623 846.805 659.199 831.299 657.138 815.746C651.167 782.464 697.609 771.173 705.725 803.149C710.787 826.396 715.423 849.801 718.683 873.356C721.483 917.168 660.632 918.73 662.42 862.532C662.909 862.465 663.398 862.398 663.886 862.332Z" fill="#000000"/>
<path d="M284.652 53.2666C293.13 53.4646 301.274 58.8846 305.761 68.2136C316.457 90.4536 326.824 112.883 336.371 135.635C341.913 148.841 337.21 161.024 326.409 166.555C315.934 171.919 302.829 169.144 296.017 157.219C282.987 134.409 270.509 111.138 259.934 87.1196C252.511 70.2576 265.059 53.1136 284.652 53.2666Z" fill="#000000"/>
<path d="M878.829 441.892C918.731 439.594 923.612 487.993 887.996 494.212C873.8 496.284 859.501 497.891 845.19 498.899C811.628 502.359 804.822 454.609 837.832 448.599C852.903 445.409 868.264 443.576 878.829 441.892Z" fill="#000000"/>
</svg>