<?xml version="1.0" encoding="iso-8859-1"?>
<!-- Uploaded to: SVG Repo, www.svgrepo.com, Generator: SVG Repo Mixer Tools -->
<svg fill="#000000" height="800px" width="800px" version="1.1" id="Layer_1" xmlns="http://www.w3.org/2000/svg" xmlns:xlink="http://www.w3.org/1999/xlink" 
	 viewBox="0 0 512 512" xml:space="preserve">
<g>
	<g>
		<path d="M512,125.308c0-9.121-7.395-16.516-16.516-16.516H440.43V96.681h55.054c9.121,0,16.516-7.395,16.516-16.516
			c0-9.121-7.395-16.516-16.516-16.516H440.43V54.84c0-9.121-7.395-16.516-16.516-16.516c-9.121,0-16.516,7.395-16.516,16.516v8.809
			h-55.054c-9.121,0-16.516,7.395-16.516,16.516c0,9.121,7.395,16.516,16.516,16.516h55.054v12.112h-55.054
			c-9.121,0-16.516,7.395-16.516,16.516c0,9.121,7.395,16.516,16.516,16.516h55.054v14.658l-78-15.328
			c-14.846-2.918-29.14,5.23-34.742,18.523c-12.34-3.287-25.295-5.048-38.655-5.048s-26.316,1.762-38.655,5.048
			c-5.608-13.304-19.909-21.439-34.743-18.524l-77.999,15.329v-14.658h55.054c9.121,0,16.516-7.395,16.516-16.516
			c0-9.121-7.395-16.516-16.516-16.516h-55.054V96.681h55.054c9.121,0,16.516-7.395,16.516-16.516
			c0-9.121-7.395-16.516-16.516-16.516h-55.054V54.84c0-9.121-7.395-16.516-16.516-16.516c-9.121,0-16.516,7.395-16.516,16.516
			v8.809H16.516C7.395,63.648,0,71.043,0,80.164c0,9.121,7.395,16.516,16.516,16.516H71.57v12.112H16.516
			C7.395,108.792,0,116.187,0,125.308c0,9.121,7.395,16.516,16.516,16.516H71.57v21.149l-20.048,3.94
			c-16.876,3.316-27.908,19.744-24.591,36.622l12.6,64.115c2.867,14.589,15.732,25.179,30.59,25.18h0.001
			c0.482,0,0.966-0.013,1.449-0.035v89.788L8.671,445.481c-6.45,6.449-6.45,16.907,0,23.357c6.449,6.45,16.906,6.45,23.357,0
			l39.542-39.542v2.11c0,9.121,7.395,16.516,16.516,16.516c9.121,0,16.516-7.395,16.516-16.516v-2.11l39.542,39.541
			c6.449,6.45,16.907,6.451,23.357,0c2.431-2.431,3.944-5.433,4.542-8.573c0.598,3.14,2.111,6.142,4.542,8.573
			c6.449,6.45,16.907,6.45,23.357,0l18.385-18.385c11.794,3.047,24.844,4.769,37.673,4.769c12.332,0,25.261-1.562,37.673-4.769
			l18.385,18.385c6.449,6.449,16.907,6.45,23.357,0c2.43-2.43,3.943-5.429,4.542-8.569c0.599,3.139,2.112,6.138,4.542,8.569
			c6.448,6.45,16.906,6.45,23.357,0l39.542-39.541v2.111c0,9.121,7.395,16.516,16.516,16.516c9.121,0,16.516-7.395,16.516-16.516
			v-2.111l39.542,39.542c6.449,6.45,16.907,6.451,23.357,0c6.45-6.45,6.45-16.907,0-23.357l-62.899-62.899v-89.788
			c0.483,0.023,0.966,0.035,1.448,0.035c0.001,0,0,0,0.001,0c14.857,0,27.723-10.59,30.591-25.18l12.599-64.112
			c1.607-8.175-0.067-16.487-4.71-23.404c-4.645-6.917-11.706-11.611-19.881-13.217l-20.047-3.942v-21.149h55.054v0.001
			C504.605,141.825,512,134.43,512,125.308z M71.586,259.473L59.697,198.97l120.016-23.585
			c-29.198,17.149-51.724,43.598-63.969,75.41L71.586,259.473z M176.585,445.481c-2.431,2.431-3.944,5.433-4.542,8.573
			c-0.598-3.14-2.111-6.142-4.542-8.573l-62.899-62.899V286.65l2.266-0.445c-0.766,6.134-1.165,12.382-1.165,18.72
			c0,57.131,32.045,106.917,79.102,132.335L176.585,445.481z M256,422.19c-64.547,0-117.265-52.503-117.265-117.265
			c0-64.66,52.605-117.265,117.265-117.265c64.661,0,117.265,52.605,117.265,117.265C373.265,369.698,320.536,422.19,256,422.19z
			 M407.398,382.582l-62.899,62.899c-2.43,2.43-3.943,5.429-4.542,8.567c-0.599-3.139-2.112-6.138-4.542-8.569l-8.221-8.221
			c47.058-25.418,79.102-75.202,79.102-132.334c0-6.339-0.399-12.586-1.165-18.72l2.266,0.445V382.582z M452.302,198.97
			l-11.889,60.504l-44.158-8.679c-12.245-31.812-34.77-58.261-63.968-75.41L452.302,198.97z"/>
	</g>
</g>
<g>
	<g>
		<path d="M256,207.481c-53.731,0-97.445,43.714-97.445,97.445s43.714,97.445,97.445,97.445s97.445-43.714,97.445-97.445
			S309.731,207.481,256,207.481z M256,369.339c-35.517,0-64.413-28.896-64.413-64.413c0-35.517,28.896-64.413,64.413-64.413
			s64.413,28.895,64.413,64.413S291.517,369.339,256,369.339z"/>
	</g>
</g>
</svg>