<!DOCTYPE svg PUBLIC "-//W3C//DTD SVG 1.1//EN" "http://www.w3.org/Graphics/SVG/1.1/DTD/svg11.dtd">
<!-- Uploaded to: SVG Repo, www.svgrepo.com, Transformed by: SVG Repo Mixer Tools -->
<svg fill="#000000" height="800px" width="800px" version="1.1" id="Layer_1" xmlns="http://www.w3.org/2000/svg" xmlns:xlink="http://www.w3.org/1999/xlink" viewBox="0 0 512 512" xml:space="preserve">
<g id="SVGRepo_bgCarrier" stroke-width="0"/>
<g id="SVGRepo_tracerCarrier" stroke-linecap="round" stroke-linejoin="round"/>
<g id="SVGRepo_iconCarrier"> <g> <g> <path d="M437.019,74.981C388.668,26.629,324.38,0,256,0S123.332,26.629,74.981,74.981C26.629,123.332,0,187.62,0,256 s26.629,132.667,74.981,181.019C123.332,485.371,187.62,512,256,512s132.668-26.629,181.019-74.981 C485.37,388.667,512,324.38,512,256S485.371,123.332,437.019,74.981z M248.395,496.66c-61.467-1.895-118.98-26.712-162.662-70.395 c-0.143-0.143-0.282-0.292-0.426-0.436c21.202-21.334,45.83-38.3,73.316-50.469c28.422-12.582,58.587-19.414,89.771-20.37V496.66z M248.396,248.396H104.939v15.208h143.457v76.167c-33.321,0.961-65.556,8.237-95.929,21.682 c-29.054,12.863-55.099,30.768-77.546,53.258c-36.948-42.037-57.85-94.916-59.583-151.108h69.32v-15.208h-69.32 c1.732-56.192,22.633-109.07,59.583-151.107c22.448,22.49,48.493,40.395,77.548,53.257c30.372,13.446,62.607,20.721,95.927,21.682 V248.396z M248.396,157.01c-31.184-0.956-61.35-7.788-89.77-20.37c-27.489-12.169-52.118-29.135-73.318-50.468 c0.144-0.145,0.283-0.293,0.427-0.438c43.682-43.681,101.195-68.5,162.662-70.394V157.01z M263.604,15.339 c61.467,1.895,118.98,26.712,162.662,70.395c0.144,0.144,0.283,0.293,0.427,0.437c-21.201,21.334-45.83,38.3-73.317,50.469 c-28.421,12.582-58.587,19.414-89.771,20.37V15.339z M263.604,248.396v-76.167c33.32-0.961,65.556-8.237,95.928-21.682 c29.055-12.863,55.1-30.768,77.546-53.257c36.949,42.037,57.851,94.915,59.583,151.108H263.604V248.396z M426.265,426.266 c-43.681,43.682-101.194,68.501-162.661,70.395V354.989c31.184,0.956,61.35,7.788,89.77,20.37 c27.488,12.169,52.117,29.135,73.318,50.468C426.549,425.973,426.41,426.122,426.265,426.266z M359.531,361.454 c-30.372-13.446-62.607-20.721-95.927-21.682v-76.167h233.057c-1.734,56.192-22.635,109.07-59.583,151.107 C414.632,392.22,388.587,374.316,359.531,361.454z"/> </g> </g> </g>
</svg>