<!DOCTYPE svg PUBLIC "-//W3C//DTD SVG 1.1//EN" "http://www.w3.org/Graphics/SVG/1.1/DTD/svg11.dtd">
<!-- Uploaded to: SVG Repo, www.svgrepo.com, Transformed by: SVG Repo Mixer Tools -->
<svg version="1.1" id="designs" xmlns="http://www.w3.org/2000/svg" xmlns:xlink="http://www.w3.org/1999/xlink" width="800px" height="800px" viewBox="0 0 32 32" xml:space="preserve" fill="#000000">
<g id="SVGRepo_bgCarrier" stroke-width="0"/>
<g id="SVGRepo_tracerCarrier" stroke-linecap="round" stroke-linejoin="round"/>
<g id="SVGRepo_iconCarrier"> <style type="text/css"> .sketchy_een{fill:#111918;} </style> <path class="sketchy_een" d="M6.331,7.51c0,0,0.001-0.001,0.001-0.001c0.027-0.034,0.053-0.069,0.08-0.103 C6.385,7.441,6.358,7.475,6.331,7.51z M28.812,15.973c-0.068,0.829-0.199,1.668-0.416,2.474c-0.105,0.393-0.228,0.775-0.376,1.153 c-0.145,0.369-0.297,0.735-0.45,1.102c-0.314,0.756-0.651,1.492-1.115,2.171c-0.48,0.698-0.993,1.383-1.574,2.003 c-0.271,0.29-0.549,0.566-0.848,0.828C23.707,25.989,23.354,26.247,23,26.5c-0.628,0.45-1.317,0.828-2.009,1.168 c-1.471,0.726-3.079,1.104-4.704,1.258c-0.756,0.071-1.509,0.107-2.267,0.028c-0.427-0.045-0.86-0.096-1.281-0.19 c-0.369-0.081-0.726-0.188-1.08-0.32c-0.412-0.152-0.818-0.324-1.204-0.534c-0.354-0.192-0.692-0.416-1.029-0.638 c-0.705-0.465-1.366-0.999-2.001-1.554c-0.312-0.273-0.604-0.566-0.895-0.86c-0.286-0.288-0.564-0.579-0.824-0.892 c-0.547-0.66-0.984-1.418-1.317-2.203c-0.325-0.762-0.591-1.548-0.781-2.353c-0.192-0.814-0.348-1.636-0.403-2.472 c-0.026-0.401-0.053-0.801-0.045-1.202c0.009-0.5,0.053-0.999,0.134-1.494c0.064-0.401,0.139-0.796,0.245-1.189 c0.094-0.352,0.239-0.694,0.376-1.031c0.638-1.561,1.349-3.138,2.387-4.479C6.261,7.6,6.22,7.655,6.178,7.707 c0.051-0.066,0.102-0.132,0.154-0.198c0.225-0.288,0.457-0.566,0.71-0.831c0.216-0.228,0.444-0.444,0.668-0.662 C7.956,5.777,8.204,5.54,8.46,5.313c0.29-0.256,0.606-0.487,0.922-0.711c0.593-0.421,1.264-0.726,1.945-0.974 c0.327-0.119,0.653-0.231,0.991-0.314c0.361-0.088,0.726-0.162,1.089-0.243c0.14-0.031,0.282-0.029,0.414,0.004 C14.073,3.02,14.33,3,14.589,3c0.177,0,0.354,0.009,0.53,0.024c0.448,0.036,0.893,0.098,1.339,0.167 c1.548,0.237,3.094,0.649,4.524,1.294c0.726,0.329,1.445,0.705,2.094,1.168c0.687,0.491,1.302,1.057,1.9,1.653 c0.577,0.576,1.112,1.202,1.584,1.868c0.228,0.318,0.44,0.645,0.641,0.98c0.207,0.342,0.431,0.681,0.615,1.036 c0.372,0.72,0.707,1.486,0.856,2.287C28.826,14.306,28.878,15.135,28.812,15.973z M27.072,13.32 c-0.061-0.217-0.139-0.427-0.221-0.637c-0.105-0.247-0.213-0.495-0.347-0.727c-0.021-0.035-0.042-0.07-0.063-0.105 c-1.029,0.545-2.048,1.108-3.064,1.672c-0.003,0.001-0.006,0.001-0.008,0.003c-0.011,0.679-0.016,1.358,0,2.037 c0.005,0.214,0.016,0.428,0.026,0.642c0.132-0.051,0.266-0.098,0.398-0.151c0.631-0.289,1.229-0.638,1.841-0.961 c0.303-0.16,0.606-0.318,0.907-0.482c0.227-0.123,0.464-0.224,0.703-0.319c-0.008-0.089-0.008-0.179-0.018-0.269 C27.183,13.786,27.138,13.553,27.072,13.32z M24.318,23.152c-0.111-0.036-0.218-0.088-0.31-0.171 c-0.637-0.575-1.283-1.138-1.95-1.678c-0.497,0.014-0.994,0.016-1.491,0.014c-0.549-0.002-1.097-0.002-1.646-0.017 c-0.796-0.019-1.591-0.043-2.389-0.064c-0.756-0.019-1.51-0.066-2.267-0.098c-0.393-0.015-0.788-0.026-1.183-0.047 c-0.395-0.019-0.794-0.047-1.191-0.053c-0.644-0.007-1.289,0.016-1.933,0.044c-0.095,0.099-0.206,0.181-0.339,0.218 c-0.078,0.022-0.159,0.02-0.24,0.017c-0.774,0.602-1.541,1.211-2.292,1.841c0.172,0.192,0.35,0.378,0.532,0.561 c0.057-0.015,0.111-0.036,0.172-0.038c1.217-0.034,2.434-0.039,3.651-0.036c1.185,0.004,2.366-0.021,3.551-0.047 c0.568-0.013,1.135-0.021,1.703-0.021c0.177,0,0.354,0.001,0.532,0.003c0.734,0.006,1.465,0.03,2.199,0.045 c0.745,0.015,1.488,0.023,2.233,0.024c0.757,0,1.512-0.037,2.269-0.048C24.061,23.453,24.193,23.305,24.318,23.152z M5.065,13.478 c-0.084,0.319-0.138,0.644-0.195,0.969c0.723,0.445,1.447,0.89,2.182,1.314c0.496,0.286,0.999,0.562,1.509,0.822 c0.001-0.219,0-0.437,0.002-0.656c0.007-0.921,0.036-1.843,0.066-2.764c-0.056-0.018-0.112-0.029-0.168-0.056 c-0.495-0.237-0.974-0.504-1.456-0.762c-0.412-0.22-0.823-0.444-1.233-0.668c-0.066,0.147-0.135,0.292-0.199,0.44 C5.39,12.562,5.188,13.011,5.065,13.478z M23.865,8.415c-0.152-0.152-0.308-0.304-0.464-0.455c0.035,1.022,0.052,2.046,0.025,3.068 c-0.006,0.23-0.011,0.46-0.018,0.69c0.735-0.391,1.469-0.781,2.219-1.144c-0.174-0.261-0.34-0.528-0.529-0.781 C24.715,9.311,24.303,8.851,23.865,8.415z M19.969,5.702c-0.235-0.092-0.472-0.174-0.71-0.258c-0.027,1.62-0.093,3.239-0.121,4.857 c-0.028,1.638-0.028,3.275-0.026,4.911c0,0.82-0.004,1.64-0.009,2.46c-0.006,0.697-0.003,1.394-0.018,2.09 c0.316-0.001,0.633,0.003,0.949,0.001c0.182,0,0.367,0,0.551,0.002c0.497,0.002,0.994-0.005,1.488-0.046 c0.011-0.684,0.003-1.369-0.019-2.054c-0.03-0.054-0.066-0.106-0.083-0.167c-0.051-0.181-0.023-0.373,0.057-0.541 c-0.009-0.225-0.014-0.45-0.025-0.675c-0.07-1.505-0.053-3.015-0.032-4.522c0.024-1.623-0.041-3.247-0.139-4.866 c-0.003-0.057,0.018-0.109,0.029-0.163C21.258,6.34,20.623,5.989,19.969,5.702z M14.24,7.297c0.032,0.901,0.064,1.804,0.119,2.705 c0.045,0.794,0.092,1.586,0.115,2.381c0.023,0.769,0.017,1.541,0.051,2.312c0.07,1.58,0.137,3.156,0.126,4.74 c0,0.092-0.022,0.179-0.054,0.26c0.991,0.021,1.982,0.043,2.972,0.062c0.017-0.738,0.013-1.478,0.015-2.216 c0.002-0.801,0-1.603-0.006-2.404c-0.009-1.661-0.032-3.32-0.021-4.981c0.009-1.721,0.03-3.445,0.045-5.168 c-0.549-0.12-1.097-0.238-1.655-0.32c-0.531-0.069-1.072-0.128-1.608-0.096c-0.017,0.074-0.031,0.149-0.043,0.224 C14.223,5.629,14.212,6.461,14.24,7.297z M10.42,5.838c0.003,0.033,0.019,0.062,0.017,0.096c-0.109,1.593-0.19,3.185-0.229,4.781 c-0.041,1.635-0.094,3.269-0.113,4.906c-0.009,0.811-0.013,1.62-0.019,2.43c-0.004,0.517-0.001,1.035,0.022,1.551 c0.224-0.005,0.448-0.014,0.671-0.014c0.185,0,0.371,0.001,0.556,0.004c0.587,0.009,1.174,0.058,1.759,0.071 c0.056,0.001,0.112,0.002,0.168,0.003c-0.026-0.074-0.048-0.15-0.047-0.232c0.002-1.43-0.038-2.853-0.132-4.279 c-0.043-0.687-0.056-1.373-0.081-2.06c-0.026-0.709-0.06-1.416-0.111-2.124c-0.113-1.616-0.196-3.235-0.196-4.857 c0-0.387,0.021-0.777,0.053-1.162c0.002-0.024,0.004-0.048,0.006-0.072c-0.094,0.022-0.189,0.045-0.283,0.07 c-0.375,0.1-0.742,0.232-1.102,0.375C11.032,5.475,10.722,5.65,10.42,5.838z M6.495,10.199c0.461,0.254,0.923,0.507,1.382,0.766 c0.267,0.15,0.534,0.299,0.8,0.449c0.001-0.072,0.005-0.144,0.006-0.216C8.705,9.851,8.752,8.506,8.82,7.161 c-0.086,0.083-0.178,0.16-0.264,0.244c-0.372,0.363-0.717,0.74-1.041,1.145C7.137,9.077,6.802,9.63,6.495,10.199z M4.846,17.615 c0.205,1.25,0.526,2.47,1.004,3.642c0.088,0.191,0.193,0.372,0.294,0.556c0.323-0.26,0.644-0.522,0.974-0.773 c0.322-0.242,0.654-0.473,0.979-0.712c0.163-0.13,0.327-0.257,0.492-0.384c-0.037-0.556-0.033-1.114-0.033-1.671 c-0.026-0.011-0.053-0.013-0.08-0.026c-0.745-0.365-1.484-0.741-2.218-1.129c-0.513-0.271-1.016-0.561-1.517-0.856 C4.759,16.715,4.794,17.164,4.846,17.615z M22.255,25.133c-0.042,0.001-0.084,0.005-0.126,0.005 c-0.562-0.006-1.125-0.015-1.689-0.028c-1.149-0.024-2.299-0.088-3.45-0.117c-1.548-0.038-3.094,0-4.642,0.021 c-0.711,0.008-1.422,0.017-2.133,0.041c-0.36,0.013-0.72,0.028-1.079,0.044c0.035,0.028,0.067,0.06,0.102,0.089 c0.808,0.617,1.663,1.194,2.592,1.61c0.291,0.119,0.587,0.232,0.892,0.315c0.333,0.091,0.668,0.162,1.01,0.217 c0.54,0.066,1.078,0.1,1.623,0.08c0.548-0.021,1.095-0.076,1.64-0.14c0.988-0.151,1.949-0.403,2.877-0.776 C20.71,26.123,21.508,25.663,22.255,25.133z M27.209,16.333c0.016-0.123,0.029-0.247,0.043-0.371 c-0.522,0.256-1.039,0.522-1.551,0.8c-0.406,0.222-0.811,0.451-1.234,0.643c-0.333,0.15-0.673,0.283-1.012,0.419 c0,0.004,0,0.007,0,0.011c0.013,0.739-0.004,1.482,0.026,2.221c0.005,0.12-0.035,0.228-0.09,0.328 c0.257,0.216,0.515,0.43,0.762,0.658c0.312,0.286,0.613,0.583,0.927,0.867c0.028,0.025,0.038,0.06,0.061,0.088 c0.043-0.066,0.094-0.128,0.135-0.195c0.271-0.444,0.502-0.901,0.709-1.379c-0.026,0.062-0.053,0.124-0.079,0.188 c0.301-0.713,0.624-1.43,0.845-2.173C26.957,17.751,27.095,17.045,27.209,16.333z"/> </g>
</svg>